<mxfile host="app.diagrams.net" modified="2023-10-11T05:41:32.392Z" agent="Mozilla/5.0 (Macintosh; Intel Mac OS X 10_15_7) AppleWebKit/537.36 (KHTML, like Gecko) Chrome/117.0.0.0 Safari/537.36" version="21.7.5" etag="QACMwy9KYJYWeCq4Q8th" type="github">
  <diagram name="第 1 页" id="LLY4dwBgJFelDVYa6HfH">
    <mxGraphModel>
      <root>
        <mxCell id="0" />
        <mxCell id="1" parent="0" />
      </root>
    </mxGraphModel>
  </diagram>
</mxfile>
